<svg width="800" height="1000" viewBox="0 0 800 1000" fill="none" xmlns="http://www.w3.org/2000/svg">
  <rect width="800" height="1000" rx="40" fill="#F8FAFC"/>
  <rect x="40" y="40" width="720" height="920" rx="20" fill="white" stroke="#E2E8F0" stroke-width="2"/>
  
  <!-- Header -->
  <rect x="80" y="80" width="60" height="60" rx="12" fill="#2563EB"/>
  <path d="M100 100C100 97.7909 101.791 96 104 96H116C118.209 96 120 97.7909 120 100V112C120 114.209 118.209 116 116 116H104C101.791 116 100 114.209 100 112V100Z" fill="white"/>
  <text x="160" y="110" font-family="Inter, sans-serif" font-size="24" font-weight="bold" fill="#0F172A">NeuroScan</text>
  <text x="160" y="135" font-family="Inter, sans-serif" font-size="14" font-weight="600" fill="#64748B" letter-spacing="0.1em">CLINICAL REPORT</text>
  
  <text x="550" y="105" font-family="Inter, sans-serif" font-size="12" font-weight="bold" fill="#94A3B8" text-anchor="end">ID: #REF-2024-04-06</text>
  <text x="550" y="125" font-family="Inter, sans-serif" font-size="12" font-weight="500" fill="#94A3B8" text-anchor="end">DATE: 06 AVRIL 2026</text>
  
  <!-- Patient Box -->
  <rect x="80" y="180" width="640" height="100" rx="16" fill="#F1F5F9"/>
  <text x="110" y="215" font-family="Inter, sans-serif" font-size="12" font-weight="bold" fill="#64748B" letter-spacing="0.05em">PATIENT</text>
  <text x="110" y="245" font-family="Inter, sans-serif" font-size="20" font-weight="bold" fill="#0F172A">Jean-Pierre Lefebvre</text>
  <text x="110" y="265" font-family="Inter, sans-serif" font-size="14" font-weight="500" fill="#64748B">62 ans • Homme • Dossier #8291</text>
  
  <!-- Charts Section -->
  <text x="80" y="340" font-family="Inter, sans-serif" font-size="16" font-weight="bold" fill="#0F172A">Analyse Volumétrique</text>
  
  <rect x="80" y="360" width="310" height="180" rx="16" stroke="#F1F5F9" stroke-width="2"/>
  <text x="100" y="390" font-family="Inter, sans-serif" font-size="12" font-weight="bold" fill="#64748B">HIPPOCAMPE GAUCHE</text>
  <text x="100" y="425" font-family="Inter, sans-serif" font-size="28" font-weight="bold" fill="#2563EB">3.42 cm³</text>
  <rect x="100" y="445" width="270" height="8" rx="4" fill="#E2E8F0"/>
  <rect x="100" y="445" width="220" height="8" rx="4" fill="#2563EB"/>
  <text x="100" y="475" font-family="Inter, sans-serif" font-size="12" fill="#94A3B8">P82 (Normal range)</text>
  
  <rect x="410" y="360" width="310" height="180" rx="16" stroke="#F1F5F9" stroke-width="2"/>
  <text x="430" y="390" font-family="Inter, sans-serif" font-size="12" font-weight="bold" fill="#64748B">HIPPOCAMPE DROIT</text>
  <text x="430" y="425" font-family="Inter, sans-serif" font-size="28" font-weight="bold" fill="#2563EB">3.18 cm³</text>
  <rect x="430" y="445" width="270" height="8" rx="4" fill="#E2E8F0"/>
  <rect x="430" y="445" width="200" height="8" rx="4" fill="#2563EB"/>
  <text x="430" y="475" font-family="Inter, sans-serif" font-size="12" fill="#94A3B8">P74 (Normal range)</text>
  
  <!-- Brain Scan Visualization -->
  <rect x="80" y="560" width="640" height="260" rx="20" fill="#0F172A"/>
  <circle cx="240" cy="690" r="80" fill="#1E293B"/>
  <path d="M200 690C200 660 220 640 240 640C260 640 280 660 280 690C280 720 260 740 240 740C220 740 200 720 200 690Z" fill="#334155" opacity="0.5"/>
  <path d="M220 680C220 675 225 670 230 670C235 670 240 675 240 680V700C240 705 235 710 230 710C225 710 220 705 220 700V680Z" fill="#60A5FA" opacity="0.8"/>
  <path d="M250 680C250 675 255 670 260 670C265 670 270 675 270 680V700C270 705 265 710 260 710C255 710 250 705 250 700V680Z" fill="#60A5FA" opacity="0.8"/>
  
  <rect x="400" y="590" width="280" height="20" rx="4" fill="#1E293B"/>
  <rect x="400" y="590" width="180" height="20" rx="4" fill="#2563EB" opacity="0.4"/>
  <text x="400" y="580" font-family="Inter, sans-serif" font-size="10" font-weight="bold" fill="#64748B">LONGITUDINAL TRACKING</text>
  
  <rect x="400" y="630" width="280" height="150" rx="12" fill="#1E293B"/>
  <path d="M420 750L460 720L500 730L540 690L580 700L620 660L660 640" stroke="#2563EB" stroke-width="3" stroke-linecap="round" fill="none"/>
  
  <!-- Conclusion -->
  <rect x="80" y="860" width="640" height="80" rx="16" fill="#F0FDF4" stroke="#BBF7D0" stroke-width="1"/>
  <text x="110" y="890" font-family="Inter, sans-serif" font-size="12" font-weight="bold" fill="#166534">CONCLUSION CLINIQUE</text>
  <text x="110" y="915" font-family="Inter, sans-serif" font-size="13" fill="#166534">"Asymétrie hippocampique confirmée (7.2%). Volume normal pour l'âge."</text>
</svg>
